<svg width="29" height="35" viewBox="0 0 29 35" fill="none" xmlns="http://www.w3.org/2000/svg">
<path d="M9.66393 35.0001C4.45488 34.97 0.146049 24.3366 0.146049 18.9213C0.146049 10.0753 6.78204 8.13866 9.3395 8.13866C10.492 8.13866 11.7227 8.59126 12.8082 8.99178C13.5673 9.27117 14.3523 9.55957 14.7889 9.55957C15.0502 9.55957 15.6661 9.31423 16.2098 9.09897C17.3694 8.63734 18.8123 8.0636 20.4926 8.0636C20.4956 8.0636 20.4996 8.0636 20.5026 8.0636C21.7572 8.0636 25.5614 8.33895 27.8485 11.7736L28.3843 12.5787L27.6133 13.1605C26.5118 13.9916 24.502 15.5077 24.502 18.5108C24.502 22.0676 26.7781 23.4354 27.8716 24.0933C28.3543 24.3837 28.8539 24.6831 28.8539 25.338C28.8539 25.7656 25.4413 34.947 20.4856 34.947C19.2729 34.947 18.4158 34.5825 17.6597 34.2611C16.8947 33.9356 16.2348 33.6553 15.1443 33.6553C14.5915 33.6553 13.8926 33.9166 13.1526 34.194C12.1413 34.5714 10.9967 35.0001 9.69797 35.0001H9.66393Z" fill="white"/>
<path d="M21.0176 0C21.1467 4.65363 17.8186 7.88211 14.4944 7.67963C13.9466 3.96587 17.8182 0 21.0176 0Z" fill="white"/>
</svg>
