<svg width="30" height="30" viewBox="0 0 30 30" fill="none" xmlns="http://www.w3.org/2000/svg">
<path d="M19.2525 26.25V17.5425H22.1688L22.605 14.1575H19.2525V11.9975C19.2525 11.0175 19.525 10.3488 20.93 10.3488H22.7225V7.32125C21.8547 7.22918 20.9826 7.18453 20.11 7.1875C17.5262 7.1875 15.7575 8.765 15.7575 11.6625V14.1575H12.835V17.5425H15.7575V26.25H5C4.66848 26.25 4.35054 26.1183 4.11612 25.8839C3.8817 25.6495 3.75 25.3315 3.75 25V5C3.75 4.66848 3.8817 4.35054 4.11612 4.11612C4.35054 3.8817 4.66848 3.75 5 3.75H25C25.3315 3.75 25.6495 3.8817 25.8839 4.11612C26.1183 4.35054 26.25 4.66848 26.25 5V25C26.25 25.3315 26.1183 25.6495 25.8839 25.8839C25.6495 26.1183 25.3315 26.25 25 26.25H19.2525V26.25Z" fill="#FFAD8F"/>
</svg>
