<svg width="113" height="104" viewBox="0 0 113 104" fill="none" xmlns="http://www.w3.org/2000/svg">
<path d="M111.117 28.3118H99.1462C106.434 22.9666 107.59 13.2473 101.726 6.60305C98.5085 2.95653 93.6502 0.837421 88.5167 0.841069H72.0036C65.289 0.843215 59.2089 4.4584 56.5 10.0592C53.7911 4.4584 47.711 0.843215 40.9964 0.841069H24.4833C15.1293 0.834416 7.54063 7.74201 7.53333 16.2693C7.52933 20.9492 9.85384 25.3782 13.8538 28.3118H1.88333C0.843262 28.3118 0 29.0805 0 30.0287V47.1979C0 48.146 0.843262 48.9148 1.88333 48.9148H5.65V102.139C5.65 103.087 6.49326 103.856 7.53333 103.856H105.467C106.507 103.856 107.35 103.087 107.35 102.139V48.9148H111.117C112.157 48.9148 113 48.146 113 47.1979V30.0287C113 29.0805 112.157 28.3118 111.117 28.3118ZM85.1775 4.41741C85.3301 4.39681 85.4807 4.36934 85.6333 4.35217C86.1102 4.30238 86.59 4.27662 87.0703 4.27491H88.5167C95.7941 4.28242 101.692 9.65895 101.7 16.2933C101.692 22.9277 95.7941 28.3043 88.5167 28.3118H84.0927C91.3737 22.9629 92.5197 13.246 86.6524 6.60841C85.9885 5.85726 85.2488 5.1647 84.443 4.53931C84.686 4.49296 84.9308 4.45175 85.1775 4.41741ZM80.2903 6.06565C86.5041 9.49413 88.4927 16.8657 84.7316 22.5305C82.3436 26.1278 78.0625 28.3216 73.45 28.3118H66.9129L74.9924 11.4757C76.1031 9.21684 77.954 7.32694 80.2903 6.06565ZM66.9582 31.7456H79.8194L88.7144 47.9653L94.8861 59.2163H88.5167C87.9239 59.2163 87.3657 59.4708 87.01 59.9031L83.2659 64.4529L74.3107 46.4939L66.9582 31.7456ZM69.6702 45.481H65.9167V37.954L69.6702 45.481ZM32.7097 6.06565C35.046 7.32694 36.8969 9.21684 38.0075 11.4757L46.0871 28.3118H39.55C32.2867 28.3272 26.385 22.9719 26.3681 16.3504C26.3572 12.1457 28.7637 8.24292 32.7097 6.06565ZM46.0419 31.7456L38.6968 46.4871L29.7341 64.4529L25.99 59.9031C25.6343 59.4708 25.0761 59.2163 24.4833 59.2163H18.1139L24.295 47.9653L33.1806 31.7456H46.0419ZM11.3 16.2933C11.3082 9.65895 17.2059 4.28242 24.4833 4.27491H25.9297C26.41 4.27662 26.8898 4.30238 27.3667 4.35217C27.5193 4.36934 27.6699 4.39681 27.8225 4.41741C28.0692 4.45175 28.314 4.49296 28.557 4.53931C21.4363 10.0646 20.5771 19.8062 26.6376 26.2976C27.3234 27.0322 28.0833 27.7066 28.9073 28.3118H24.4833C17.2059 28.3043 11.3082 22.9277 11.3 16.2933ZM3.76667 45.481V31.7456H28.9694L21.4361 45.481H3.76667ZM47.0833 100.422H9.41667V48.9148H19.5528L13.3811 60.1658C12.9161 61.0139 13.2935 62.0452 14.2239 62.469C14.4857 62.5881 14.774 62.6502 15.0667 62.6502H23.5417L28.6267 68.8311C28.9824 69.2633 29.5406 69.5178 30.1333 69.5178C30.2014 69.5178 30.2692 69.5144 30.3367 69.5075C30.9964 69.4408 31.5687 69.0624 31.8434 68.5117L41.6217 48.9148H47.0833V100.422ZM47.0833 45.481H43.3298L47.0833 37.954V45.481ZM41.4578 10.1004C40.3612 7.82528 38.6757 5.82636 36.5461 4.27491H40.9964C46.2339 4.27491 50.9748 7.10138 53.0742 11.4757L54.4434 14.3309L48.9667 25.745L41.4578 10.1004ZM62.15 100.422H50.85V31.7456H62.15V100.422ZM51.8463 28.3118L59.9258 11.4757C62.0252 7.10138 66.766 4.27491 72.0036 4.27491H76.4633C74.3337 5.82636 72.6482 7.82528 71.5516 10.1004L62.8016 28.3118H51.8463ZM103.583 100.422H65.9167V48.9148H71.3783L81.1528 68.5117C81.4276 69.0624 81.9999 69.4408 82.6595 69.5075C82.7282 69.5146 82.7975 69.518 82.8667 69.5178C83.4594 69.5178 84.0176 69.2633 84.3733 68.8311L89.4583 62.6502H97.9333C98.9734 62.6553 99.8214 61.8908 99.827 60.9427C99.8287 60.6731 99.7606 60.407 99.6283 60.1658L93.4472 48.9148H103.583V100.422ZM109.233 45.481H91.5639L84.0306 31.7456H109.233V45.481Z" fill="#FF9A76"/>
</svg>
