<svg width="168" height="88" viewBox="0 0 168 88" fill="none" xmlns="http://www.w3.org/2000/svg">
<path d="M7.56063 67.6697C8.70386 68.3346 10.2661 68.0191 10.9941 66.978C17.5661 57.5922 27.8449 51.3983 31.9606 49.1706C33.3273 48.4311 33.5777 46.6611 32.46 45.6294C27.6048 41.1484 24.9313 35.213 24.9313 28.9166C24.9313 15.801 36.6356 5.12955 51.0224 5.12955C58.053 5.12955 64.6454 7.64136 69.5861 12.2027C70.5518 13.0923 72.1255 13.1017 73.1027 12.2225C74.0799 11.3421 74.0901 9.90746 73.1244 9.01663C67.2422 3.5866 59.3929 0.596191 51.0224 0.596191C33.8932 0.596191 19.9586 13.3008 19.9586 28.9166C19.9586 32.9527 20.8847 36.8643 22.6385 40.4486C21.9283 40.5091 21.1708 40.5965 20.3929 40.7245C14.1594 41.7493 11.8002 44.4486 10.9175 46.533C9.55202 49.7563 10.2763 52.8958 12.9549 55.3738C13.3125 55.7057 13.6817 56.0015 14.0457 56.2658C11.468 58.688 8.96827 61.4443 6.80188 64.5396C6.06358 65.5946 6.40335 66.9966 7.56063 67.6697ZM15.5568 48.1656C16.7026 45.4605 22.2846 44.8713 25.3375 44.8527C25.8178 45.492 26.3249 46.1161 26.8639 46.7217C24.2109 48.2937 20.983 50.4224 17.6938 53.0879C17.3081 52.8504 16.8866 52.5523 16.497 52.1925C15.1826 50.9756 14.8926 49.7342 15.5568 48.1656Z" fill="#FF9A76"/>
<path d="M36.4313 27.347C36.4313 29.2533 38.1314 30.8032 40.2224 30.8032C42.3122 30.8032 44.0123 29.2533 44.0123 27.347C44.0123 25.4418 42.3122 23.8918 40.2224 23.8918C38.1314 23.8918 36.4313 25.4418 36.4313 27.347Z" fill="#FF9A76"/>
<path d="M58.0312 27.347C58.0312 29.2533 59.7327 30.8032 61.8224 30.8032C63.9135 30.8032 65.6136 29.2533 65.6136 27.347C65.6136 25.4418 63.9135 23.8918 61.8224 23.8918C59.7327 23.8918 58.0312 25.4418 58.0312 27.347Z" fill="#FF9A76"/>
<path d="M101.811 27.347C101.811 29.2533 103.511 30.8032 105.602 30.8032C107.692 30.8032 109.394 29.2533 109.394 27.347C109.394 25.4418 107.692 23.8918 105.602 23.8918C103.511 23.8918 101.811 25.4418 101.811 27.347Z" fill="#FF9A76"/>
<path d="M123.412 27.347C123.412 29.2533 125.113 30.8032 127.202 30.8032C129.293 30.8032 130.994 29.2533 130.994 27.347C130.994 25.4418 129.293 23.8918 127.202 23.8918C125.113 23.8918 123.412 25.4418 123.412 27.347Z" fill="#FF9A76"/>
<path d="M118.657 33.9972C118.459 34.3163 117.672 34.8228 116.402 34.8228C115.133 34.8228 114.346 34.3163 114.148 33.9972C113.472 32.9072 111.955 32.523 110.759 33.139C109.565 33.755 109.142 35.1384 109.818 36.2272C111.014 38.1579 113.537 39.3562 116.402 39.3562C119.267 39.3562 121.79 38.1579 122.987 36.2272C123.663 35.1384 123.24 33.755 122.046 33.139C120.849 32.523 119.333 32.9072 118.657 33.9972Z" fill="#FF9A76"/>
<path d="M53.277 33.9972C53.079 34.3163 52.2922 34.8228 51.0225 34.8228C49.7528 34.8228 48.9659 34.3163 48.7679 33.9972C48.0922 32.9072 46.5747 32.523 45.3791 33.139C44.1848 33.755 43.762 35.1384 44.4377 36.2272C45.6346 38.1579 48.1574 39.3562 51.0225 39.3562C53.8876 39.3562 56.4103 38.1579 57.6072 36.2272C58.283 35.1384 57.8601 33.755 56.6658 33.139C55.4689 32.523 53.9527 32.9072 53.277 33.9972Z" fill="#FF9A76"/>
<path d="M151.855 54.8882C150.868 54.0195 149.294 54.0451 148.34 54.9453C147.386 55.8454 147.414 57.2812 148.401 58.15C156.98 65.7017 161.668 73.9113 162.361 82.5821H150.464C149.7 78.001 147.08 72.748 146.951 72.4895C146.378 71.3518 144.903 70.8522 143.656 71.3739C142.407 71.8956 141.859 73.2406 142.43 74.3783C143.15 75.8118 144.776 79.4974 145.425 82.5821H101.963C101.367 74.0231 97.3826 65.8763 90.0915 58.3339C84.9578 53.0227 79.2021 49.1135 75.1784 46.724C75.2959 46.5924 75.4045 46.4573 75.5195 46.3246L95.6518 49.457C96.6979 49.6189 97.7862 49.1263 98.2755 48.2693C98.7634 47.4122 98.5846 46.3164 97.8399 45.6294C92.9847 41.1484 90.3112 35.213 90.3112 28.9166C90.3112 15.8009 102.016 5.12955 116.402 5.12955C130.789 5.12955 142.493 15.8009 142.493 28.9166C142.493 35.213 139.82 41.1484 134.966 45.6294C133.847 46.6611 134.099 48.4311 135.466 49.1717C137.324 50.1767 139.2 51.3086 141.042 52.5325C142.138 53.2603 143.718 53.0332 144.517 52.0364C145.325 51.0244 145.081 49.6061 143.973 48.869C142.845 48.119 141.703 47.4017 140.56 46.7228C145.034 41.6957 147.467 35.4703 147.467 28.9154C147.467 13.3008 133.532 0.596191 116.402 0.596191C99.2731 0.596191 85.3385 13.3008 85.3385 28.9154C85.3385 34.3291 86.9977 39.5181 90.0966 43.9932L78.4727 42.1848C80.8294 38.144 82.0863 33.6153 82.0863 28.9166C82.0863 24.8083 81.1424 20.8455 79.28 17.1378C78.7077 15.9989 77.2311 15.4993 75.9844 16.0199C74.7352 16.5416 74.1872 17.8865 74.7582 19.0242C76.3217 22.1358 77.1136 25.4639 77.1136 28.9166C77.1136 33.8482 75.4671 38.5551 72.4232 42.5178C72.3976 42.5504 72.3721 42.5819 72.3491 42.6157C71.5252 43.6765 70.6068 44.6861 69.5862 45.6294C68.4672 46.6611 68.7189 48.4311 70.0856 49.1706C73.6277 51.0885 80.4513 55.2178 86.3604 61.3302C92.8148 68.0085 96.3799 75.1469 96.9815 82.5821H85.0843C84.3204 78.001 81.7006 72.748 81.5716 72.4895C80.9993 71.3518 79.524 70.8522 78.276 71.3739C77.028 71.8956 76.4788 73.2406 77.051 74.3783C77.7702 75.8118 79.3962 79.4974 80.0451 82.5821H21.9998C22.6487 79.4974 24.2748 75.8118 24.9952 74.3783C25.5662 73.2406 25.0182 71.8956 23.7702 71.3739C22.5222 70.8522 21.0456 71.3518 20.4734 72.4895C20.3444 72.748 17.7245 78.001 16.9607 82.5821H5.06597C5.2844 79.9026 5.88986 77.2441 6.87342 74.6531C7.32305 73.47 6.63583 72.1786 5.33805 71.7698C4.04153 71.3599 2.62495 71.9864 2.17533 73.1695C0.731921 76.9681 0 80.8971 0 84.8494C0 86.1012 1.11385 87.1155 2.487 87.1155H164.938C166.311 87.1155 167.425 86.1012 167.425 84.8494C167.425 74.2141 162.041 63.8548 151.855 54.8882Z" fill="#FF9A76"/>
</svg>
