<svg width="30" height="30" viewBox="0 0 30 30" fill="none" xmlns="http://www.w3.org/2000/svg">
<path d="M15 8.99135C11.6748 8.99135 8.99122 11.6749 8.99122 15.0001C8.99122 18.3253 11.6748 21.0089 15 21.0089C18.3252 21.0089 21.0088 18.3253 21.0088 15.0001C21.0088 11.6749 18.3252 8.99135 15 8.99135ZM15 18.9054C12.8496 18.9054 11.0947 17.1505 11.0947 15.0001C11.0947 12.8497 12.8496 11.0949 15 11.0949C17.1504 11.0949 18.9053 12.8497 18.9053 15.0001C18.9053 17.1505 17.1504 18.9054 15 18.9054ZM21.2549 7.34487C20.4785 7.34487 19.8516 7.97182 19.8516 8.74819C19.8516 9.52455 20.4785 10.1515 21.2549 10.1515C22.0313 10.1515 22.6582 9.52748 22.6582 8.74819C22.6584 8.56383 22.6223 8.38125 22.5519 8.21089C22.4814 8.04052 22.3781 7.88573 22.2477 7.75537C22.1173 7.62502 21.9626 7.52166 21.7922 7.45122C21.6218 7.38077 21.4392 7.34463 21.2549 7.34487ZM26.7129 15.0001C26.7129 13.383 26.7276 11.7804 26.6367 10.1662C26.5459 8.29115 26.1182 6.62709 24.7471 5.256C23.3731 3.88197 21.7119 3.45717 19.8369 3.36635C18.2197 3.27553 16.6172 3.29018 15.0029 3.29018C13.3858 3.29018 11.7832 3.27553 10.169 3.36635C8.29396 3.45717 6.62989 3.8849 5.2588 5.256C3.88477 6.63002 3.45997 8.29115 3.36915 10.1662C3.27833 11.7833 3.29298 13.3859 3.29298 15.0001C3.29298 16.6144 3.27833 18.2199 3.36915 19.8341C3.45997 21.7091 3.8877 23.3732 5.2588 24.7443C6.63282 26.1183 8.29396 26.5431 10.169 26.6339C11.7861 26.7247 13.3887 26.7101 15.0029 26.7101C16.6201 26.7101 18.2227 26.7247 19.8369 26.6339C21.7119 26.5431 23.376 26.1154 24.7471 24.7443C26.1211 23.3703 26.5459 21.7091 26.6367 19.8341C26.7305 18.2199 26.7129 16.6173 26.7129 15.0001ZM24.1348 21.9083C23.9209 22.4415 23.6631 22.84 23.25 23.2501C22.8369 23.6632 22.4414 23.921 21.9082 24.1349C20.3672 24.7472 16.708 24.6095 15 24.6095C13.292 24.6095 9.62989 24.7472 8.08888 24.1378C7.55567 23.924 7.15724 23.6662 6.74708 23.2531C6.33399 22.84 6.07618 22.4445 5.86231 21.9113C5.25294 20.3673 5.39063 16.7081 5.39063 15.0001C5.39063 13.2921 5.25294 9.63002 5.86231 8.08901C6.07618 7.5558 6.33399 7.15737 6.74708 6.74721C7.16017 6.33705 7.55567 6.07631 8.08888 5.86244C9.62989 5.25307 13.292 5.39076 15 5.39076C16.708 5.39076 20.3701 5.25307 21.9111 5.86244C22.4443 6.07631 22.8428 6.33412 23.2529 6.74721C23.666 7.1603 23.9238 7.5558 24.1377 8.08901C24.7471 9.63002 24.6094 13.2921 24.6094 15.0001C24.6094 16.7081 24.7471 20.3673 24.1348 21.9083Z" fill="#FF9A76"/>
</svg>
