<svg width="110" height="102" viewBox="0 0 110 102" fill="none" xmlns="http://www.w3.org/2000/svg">
<path d="M67.8333 59.235H65.8167C65.0581 59.2362 64.3795 58.8048 64.119 58.1553C63.8953 57.6204 63.6552 57.0973 63.3967 56.5792C63.0754 55.9491 63.222 55.203 63.7633 54.714L65.2006 53.402C67.3344 51.4396 67.3305 48.2749 65.1915 46.3171L60.0105 41.5939C57.8602 39.6451 54.3874 39.6451 52.2372 41.5939L50.7998 42.9026C50.2622 43.3942 49.4452 43.5277 48.7538 43.2368C48.1855 43.0012 47.6117 42.7822 47.0232 42.5683C46.307 42.3324 45.8306 41.7115 45.8333 41.0173V39.1788C45.8333 36.4096 43.3709 34.1648 40.3333 34.1648H33C29.9624 34.1648 27.5 36.4096 27.5 39.1788V41.0173C27.5014 41.7088 27.0281 42.3274 26.3157 42.565C25.729 42.7689 25.1552 42.9878 24.5868 43.2235C23.8954 43.5149 23.0782 43.3814 22.5408 42.8892L21.1017 41.5789C18.9516 39.6313 15.4802 39.6313 13.3302 41.5789L8.14916 46.3171C6.0115 48.2774 6.0115 51.4434 8.14916 53.4036L9.58466 54.714C10.126 55.203 10.2726 55.9491 9.95133 56.5792C9.69283 57.0973 9.45266 57.6204 9.22716 58.1569C8.96477 58.8102 8.27979 59.2421 7.51666 59.235H5.5C2.46239 59.235 0 61.4798 0 64.249V70.9344C0 73.7036 2.46239 75.9484 5.5 75.9484H7.51666C8.27521 75.9471 8.95377 76.3786 9.21433 77.0281C9.438 77.5629 9.67816 78.086 9.93666 78.6042C10.258 79.2343 10.1113 79.9803 9.57 80.4694L8.13266 81.7814C5.99637 83.7415 5.99637 86.9061 8.13266 88.8662L13.3137 93.5894C15.4639 95.5382 18.9367 95.5382 21.087 93.5894L22.5243 92.2808C23.062 91.7892 23.8789 91.6557 24.5703 91.9465C25.1387 92.1822 25.7125 92.4011 26.301 92.615C27.0208 92.8482 27.5014 93.4697 27.5 94.166V96.0045C27.5 98.7737 29.9624 101.019 33 101.019H40.3333C43.3709 101.019 45.8333 98.7737 45.8333 96.0045V94.166C45.8319 93.4745 46.3052 92.8559 47.0177 92.6184C47.6043 92.4145 48.1782 92.1955 48.7465 91.9599C49.4379 91.6684 50.2551 91.8019 50.7925 92.2941L52.2317 93.6045C54.3847 95.5489 57.8552 95.5451 60.0031 93.5961L65.1842 88.8729C67.3218 86.9126 67.3218 83.7467 65.1842 81.7864L63.7486 80.4761C63.2074 79.987 63.0607 79.2409 63.382 78.6108C63.6405 78.0927 63.8806 77.5696 64.1153 77.0331C64.374 76.3802 65.0551 75.9459 65.8167 75.9484H67.8333C70.8709 75.9484 73.3333 73.7036 73.3333 70.9344V64.249C73.3333 61.4798 70.8709 59.235 67.8333 59.235ZM69.6666 70.9344C69.6666 71.8574 68.8458 72.6057 67.8333 72.6057H65.8167C63.5376 72.6134 61.498 73.8977 60.6833 75.8381C60.489 76.3061 60.2788 76.7667 60.0527 77.2203C59.1101 79.1173 59.5473 81.3477 61.1526 82.8293L62.5863 84.138C63.3027 84.7902 63.3034 85.8486 62.5877 86.5017C62.5872 86.5021 62.5868 86.5025 62.5863 86.5029L57.4053 91.2262C56.6894 91.8786 55.5289 91.8786 54.813 91.2262L53.3757 89.9175C51.7511 88.4528 49.3036 88.0539 47.223 88.9147C46.7262 89.1203 46.2202 89.3125 45.7105 89.4896C43.5836 90.2321 42.1758 92.0898 42.1667 94.166V96.0045C42.1667 96.9275 41.3458 97.6759 40.3333 97.6759H33C31.9875 97.6759 31.1667 96.9275 31.1667 96.0045V94.166C31.1582 92.0884 29.7495 90.229 27.621 89.4863C27.1077 89.3091 26.6023 89.1175 26.1048 88.9113C24.024 88.0525 21.5776 88.4513 19.9522 89.9141L18.5167 91.2211C17.8012 91.8742 16.6402 91.8748 15.9239 91.2224C15.9234 91.222 15.923 91.2216 15.9225 91.2211L10.7415 86.5029C10.0258 85.8503 10.0258 84.7923 10.7415 84.1397L12.177 82.8293C13.7823 81.3477 14.2196 79.1173 13.277 77.2203C13.0515 76.7674 12.8407 76.3061 12.6463 75.8414C11.8337 73.9004 9.7955 72.6149 7.51666 72.6057H5.5C4.48754 72.6057 3.66667 71.8574 3.66667 70.9344V64.249C3.66667 63.326 4.48754 62.5776 5.5 62.5776H7.51666C9.79573 62.5699 11.8353 61.2857 12.65 59.3453C12.8443 58.8773 13.0545 58.4166 13.2807 57.9631C14.2232 56.0661 13.7857 53.8357 12.1807 52.354L10.7397 51.0454C10.0233 50.3931 10.0226 49.3347 10.7383 48.6817C10.7387 48.6813 10.7392 48.6808 10.7397 48.6804L15.9207 43.9572C16.6366 43.3047 17.7971 43.3047 18.513 43.9572L19.9503 45.2659C21.5749 46.7306 24.0224 47.1294 26.103 46.2687C26.5998 46.0631 27.1058 45.8709 27.6155 45.6937C29.7454 44.9535 31.1563 43.0952 31.1667 41.0173V39.1788C31.1667 38.2558 31.9875 37.5075 33 37.5075H40.3333C41.3458 37.5075 42.1667 38.2558 42.1667 39.1788V41.0173C42.1751 43.095 43.5838 44.9544 45.7123 45.6971C46.2257 45.8742 46.731 46.0658 47.2285 46.272C49.3091 47.1328 51.7566 46.7339 53.3812 45.2692L54.8167 43.9622C55.5353 43.3141 56.6922 43.3141 57.4108 43.9622L62.5918 48.6854C63.3075 49.3381 63.3075 50.3961 62.5918 51.0487L61.1563 52.359C59.5512 53.8407 59.1138 56.0711 60.0563 57.9681C60.2818 58.421 60.4926 58.8823 60.687 59.3469C61.5014 61.2859 63.5392 62.5693 65.8167 62.5776H67.8333C68.8458 62.5776 69.6666 63.326 69.6666 64.249V70.9344Z" fill="#FF9A76"/>
<path d="M53.13 66.9234C53.1117 66.5222 53.0805 66.1228 53.0273 65.725C52.9687 65.2972 52.899 64.8726 52.8018 64.4565C52.7377 64.184 52.6533 63.915 52.5727 63.6442C52.47 63.2999 52.3545 62.9606 52.2262 62.6263C52.1363 62.394 52.0428 62.1634 51.9475 61.9344C51.7114 61.3992 51.4415 60.8767 51.139 60.37C51.1152 60.3316 51.1005 60.2898 51.0767 60.2514C50.5998 59.4775 50.0475 58.744 49.4267 58.0602C49.3735 58.0001 49.313 57.9432 49.258 57.8847C49.005 57.6123 48.7447 57.3482 48.4715 57.0959C48.3285 56.9605 48.1782 56.8335 48.0278 56.7031C47.8445 56.5477 47.6612 56.3939 47.4778 56.2468C47.2553 56.0707 47.0287 55.9002 46.7977 55.7354L46.497 55.5315C43.6601 53.5944 40.211 52.5481 36.6667 52.5498C36.4833 52.5498 36.3 52.5749 36.1167 52.5816C35.7262 52.5916 35.3338 52.6116 34.9397 52.6484C34.7325 52.6685 34.5235 52.6902 34.3163 52.7169C33.7187 52.7886 33.1256 52.8897 32.5398 53.0195C23.7121 55.099 18.4051 63.3091 20.6862 71.3568C22.1895 76.66 26.7344 80.7999 32.5527 82.166C32.582 82.166 32.6132 82.1744 32.6443 82.1811C33.2775 82.325 33.919 82.4368 34.5657 82.5154C34.9928 82.5638 35.42 82.5738 35.849 82.5922C36.135 82.6056 36.399 82.644 36.6978 82.644C37.2203 82.644 37.763 82.6123 38.3167 82.5621C38.3753 82.5621 38.434 82.5471 38.5 82.5404C38.9455 82.4953 39.3965 82.4351 39.8567 82.3516C40.04 82.3198 40.2105 82.278 40.3865 82.2412C40.7092 82.1727 41.03 82.1009 41.36 82.0123C41.6167 81.9421 41.866 81.8602 42.1172 81.78C42.3683 81.6997 42.6287 81.6128 42.889 81.5226C43.1493 81.4323 43.3675 81.3287 43.604 81.2284C43.912 81.0997 44.2182 80.9727 44.5207 80.8223H44.5317C46.2426 79.9872 47.823 78.9468 49.2305 77.7286C49.6107 77.4052 49.9414 77.0363 50.2132 76.6322C51.6441 74.5409 52.5841 72.2021 52.9742 69.763C53.0255 69.4404 53.0713 69.1178 53.0988 68.7886C53.1245 68.4861 53.1428 68.1852 53.1502 67.8844C53.1502 67.7891 53.1648 67.6989 53.1648 67.6036C53.1667 67.3679 53.141 67.1507 53.13 66.9234ZM49.4762 68.0181C49.4762 68.1568 49.4633 68.2955 49.4542 68.4326C49.4212 68.8371 49.3643 69.2415 49.2892 69.6477C48.6039 73.1226 46.2373 76.131 42.8468 77.8373C42.6195 77.9459 42.3958 78.0478 42.1722 78.1414L42.02 78.2083C40.9548 78.6491 39.8305 78.9594 38.676 79.1309C38.5953 79.1426 38.5128 79.1559 38.4303 79.166C38.2012 79.1961 37.9757 79.2211 37.752 79.2395C37.4568 79.2629 37.1598 79.2763 36.8573 79.2813C36.729 79.2813 36.6025 79.2813 36.4742 79.2813C36.0404 79.2767 35.6072 79.2523 35.1762 79.2078L34.9562 79.1844C34.452 79.1242 33.952 79.0383 33.4583 78.927C26.592 77.3248 22.4505 70.9515 24.2078 64.6919C25.369 60.5558 28.9096 57.3246 33.4455 56.2619V56.2602C34.4987 56.0181 35.5804 55.8944 36.6667 55.8925C37.1908 55.8952 37.7144 55.9276 38.2342 55.9894C38.3735 56.0045 38.511 56.0279 38.6485 56.0463C39.0445 56.1031 39.4368 56.175 39.8237 56.2652C39.9502 56.2953 40.0767 56.322 40.2013 56.3538C41.1762 56.6103 42.1146 56.9705 42.9972 57.4268C43.1383 57.502 43.2758 57.5806 43.4152 57.6591C43.7048 57.8262 43.9853 57.9934 44.2622 58.1839C44.4107 58.2825 44.561 58.3795 44.704 58.4847C45.0638 58.7467 45.4082 59.0256 45.7362 59.3204C45.8663 59.4408 45.9855 59.5728 46.112 59.6981C46.3228 59.9071 46.5282 60.121 46.7243 60.3466C46.86 60.5021 46.9902 60.6625 47.1185 60.8246C47.3018 61.0653 47.4852 61.316 47.6502 61.5701C47.7418 61.7088 47.8335 61.8442 47.927 61.9862C48.1635 62.383 48.3741 62.792 48.5577 63.2113C48.631 63.3785 48.6933 63.5456 48.7593 63.7127C48.8785 64.0202 48.9812 64.3311 49.071 64.6453C49.1168 64.8125 49.1682 64.9612 49.2067 65.1233C49.3137 65.575 49.3914 66.0321 49.4395 66.4922C49.4505 66.6142 49.4505 66.7379 49.4597 66.8599C49.4853 67.2443 49.4927 67.6304 49.4762 68.0181Z" fill="#FF9A76"/>
<path d="M104.5 35.836H98.7342C97.9653 35.8431 97.2776 35.4017 97.0255 34.7396C96.4569 33.1871 95.769 31.6729 94.9667 30.2086C94.6261 29.5762 94.768 28.8159 95.3187 28.3216L99.407 24.5895C101.553 22.6318 101.553 19.4591 99.407 17.5014L91.6117 10.4065C89.4641 8.45021 85.984 8.45021 83.8365 10.4065L79.75 14.1303C79.2085 14.6321 78.3757 14.762 77.682 14.4528C76.0756 13.7177 74.4141 13.0871 72.71 12.5659C71.9808 12.3384 71.4931 11.7108 71.5 11.0082V5.75182C71.5 2.98262 69.0376 0.737793 66 0.737793H55C51.9624 0.737793 49.5 2.98262 49.5 5.75182V11.0082C49.5078 11.7091 49.0238 12.3361 48.2973 12.5659C46.5942 13.0869 44.9332 13.717 43.3272 14.4512C42.6335 14.7627 41.7991 14.6333 41.2573 14.1303L37.1635 10.4032C35.0135 8.45251 31.5384 8.45251 29.3883 10.4032L21.6077 17.4964C19.4606 19.4543 19.4606 22.6282 21.6077 24.5862L27.6192 30.0766C28.3463 30.7188 29.507 30.7021 30.2115 30.039C30.8988 29.3921 30.9004 28.3651 30.2152 27.7166L24.2 22.2279C23.4843 21.5753 23.4843 20.5173 24.2 19.8646L31.9807 12.7715C32.6966 12.119 33.8571 12.119 34.573 12.7715L38.6687 16.4986C40.3258 18.0182 42.8649 18.398 44.968 17.4412C46.4202 16.7783 47.9217 16.2092 49.4615 15.7381C51.684 15.0522 53.1763 13.1473 53.1667 11.0082V5.75182C53.1667 4.82882 53.9875 4.08048 55 4.08048H66C67.0125 4.08048 67.8333 4.82882 67.8333 5.75182V11.0082C67.8239 13.1469 69.3163 15.0512 71.5385 15.7364C73.079 16.2077 74.5812 16.7773 76.0338 17.4412C78.1374 18.393 80.6731 18.0128 82.3313 16.4969L86.427 12.7715C87.1429 12.119 88.3034 12.119 89.0193 12.7715L96.8 19.8663C97.5145 20.5188 97.5145 21.5755 96.8 22.2279L92.7117 25.9617C91.0463 27.4732 90.6299 29.787 91.6777 31.7044C92.4048 33.0284 93.0291 34.3972 93.5458 35.8009C94.2977 37.8274 96.3875 39.1879 98.7342 39.1787H104.5C105.512 39.1787 106.333 39.927 106.333 40.85V50.8781C106.333 51.8011 105.512 52.5494 104.5 52.5494H98.7342C96.3882 52.5409 94.2993 53.9014 93.5477 55.9272C93.0309 57.3316 92.406 58.701 91.6777 60.0254C90.6318 61.9428 91.0491 64.2553 92.7135 65.7664L96.8018 69.5002C97.5175 70.1529 97.5175 71.2108 96.8018 71.8635L89.0175 78.9567C88.3018 79.6081 87.1427 79.6081 86.427 78.9567L80.4027 73.4763C79.6982 72.8132 78.5375 72.7965 77.8103 73.4387C77.083 74.0809 77.0646 75.1391 77.7691 75.802C77.7838 75.8158 77.7989 75.8296 77.814 75.843L83.8365 81.3233C85.984 83.2796 89.4641 83.2796 91.6117 81.3233L99.3923 74.2318C101.539 72.2738 101.539 69.0999 99.3923 67.1419L95.3095 63.4132C94.7595 62.9193 94.6172 62.1603 94.9557 61.5279C95.7621 60.0634 96.4537 58.5487 97.0255 56.9952C97.2751 56.3304 97.9635 55.8859 98.7342 55.8921H104.5C107.538 55.8921 110 53.6473 110 50.8781V40.85C110 38.0808 107.538 35.836 104.5 35.836Z" fill="#FF9A76"/>
<path d="M77.352 30.5014C68.0391 22.0292 52.9609 22.0292 43.648 30.5014C42.9447 31.1653 42.9648 32.2234 43.6931 32.8646C44.4035 33.4901 45.5299 33.4901 46.2403 32.8646C54.0629 25.6369 66.8314 25.559 74.7596 32.6904C82.6879 39.8217 82.7734 51.4619 74.9508 58.6896C74.8875 58.7481 74.8238 58.8062 74.7596 58.8638C74.0313 59.5052 74.0112 60.5632 74.7147 61.2271C75.4183 61.891 76.5788 61.9094 77.3071 61.268C77.3222 61.2547 77.3373 61.2409 77.352 61.2271C86.6454 52.7371 86.6454 38.9913 77.352 30.5014Z" fill="#FF9A76"/>
</svg>
